<svg id="arch" width="960" height="640" viewBox="0 0 960 640" xmlns="http://www.w3.org/2000/svg">
  <defs>
    <marker id="ab" markerWidth="8" markerHeight="8" refX="6" refY="3" orient="auto"><path d="M0,0L0,6L8,3z" fill="#5ba3d9"/></marker>
    <marker id="ag" markerWidth="8" markerHeight="8" refX="6" refY="3" orient="auto"><path d="M0,0L0,6L8,3z" fill="#4ecb71"/></marker>
    <marker id="ap" markerWidth="8" markerHeight="8" refX="6" refY="3" orient="auto"><path d="M0,0L0,6L8,3z" fill="#ab47bc"/></marker>
    <marker id="ar" markerWidth="8" markerHeight="8" refX="6" refY="3" orient="auto"><path d="M0,0L0,6L8,3z" fill="#e53935"/></marker>
  </defs>
  <rect width="960" height="640" fill="#1a1f2e"/>

  <!-- OFFLINE LANE -->
  <rect x="20" y="20" width="920" height="150" rx="12" fill="#1e2d40" stroke="#2a4a6b" stroke-width="1.5"/>
  <text x="40" y="48" font-family="Arial" font-size="11" font-weight="bold" fill="#5ba3d9">OFFLINE PIPELINE — MODEL TRAINING</text>

  <rect x="48" y="62" width="110" height="80" rx="8" fill="#2c3347" stroke="#5b6a8a" stroke-width="1.5"/>
  <rect x="60" y="70" width="32" height="14" rx="3" fill="#37474f"/>
  <text x="76" y="78" font-family="Arial" font-size="8" font-weight="bold" fill="#fff" text-anchor="middle" dominant-baseline="middle">UBU</text>
  <text x="103" y="97" font-family="Arial" font-size="11" font-weight="bold" fill="#e8eaf0" text-anchor="middle">Ubuntu</text>
  <text x="103" y="112" font-family="Arial" font-size="9" fill="#9aa5b8" text-anchor="middle">offline_transaction.py</text>

  <line x1="158" y1="102" x2="215" y2="102" stroke="#5ba3d9" stroke-width="2" marker-end="url(#ab)"/>
  <text x="186" y="97" font-family="Arial" font-size="9" fill="#8892a4" text-anchor="middle">.csv upload</text>

  <rect x="218" y="62" width="110" height="80" rx="8" fill="#2d2710" stroke="#d4a017" stroke-width="1.5"/>
  <rect x="230" y="70" width="24" height="14" rx="3" fill="#f57f17"/>
  <text x="242" y="78" font-family="Arial" font-size="8" font-weight="bold" fill="#fff" text-anchor="middle" dominant-baseline="middle">S3</text>
  <text x="273" y="97" font-family="Arial" font-size="11" font-weight="bold" fill="#e8eaf0" text-anchor="middle">Amazon S3</text>
  <text x="273" y="112" font-family="Arial" font-size="9" fill="#9aa5b8" text-anchor="middle">raw/ · model/ · logs/</text>

  <line x1="328" y1="102" x2="385" y2="102" stroke="#5ba3d9" stroke-width="2" marker-end="url(#ab)"/>
  <text x="356" y="97" font-family="Arial" font-size="9" fill="#8892a4" text-anchor="middle">training data</text>

  <rect x="388" y="62" width="120" height="80" rx="8" fill="#1f2d1a" stroke="#4caf50" stroke-width="1.5"/>
  <rect x="400" y="70" width="28" height="14" rx="3" fill="#2e7d32"/>
  <text x="414" y="78" font-family="Arial" font-size="8" font-weight="bold" fill="#fff" text-anchor="middle" dominant-baseline="middle">SM</text>
  <text x="448" y="94" font-family="Arial" font-size="11" font-weight="bold" fill="#e8eaf0" text-anchor="middle">SageMaker</text>
  <text x="448" y="109" font-family="Arial" font-size="9" fill="#9aa5b8" text-anchor="middle">XGBoost Training</text>
  <text x="448" y="122" font-family="Arial" font-size="9" fill="#9aa5b8" text-anchor="middle">Job</text>

  <line x1="508" y1="102" x2="565" y2="102" stroke="#5ba3d9" stroke-width="2" marker-end="url(#ab)"/>
  <text x="536" y="97" font-family="Arial" font-size="9" fill="#8892a4" text-anchor="middle">deploy</text>

  <rect x="568" y="62" width="120" height="80" rx="8" fill="#1f2d1a" stroke="#4caf50" stroke-width="1.5"/>
  <rect x="580" y="70" width="28" height="14" rx="3" fill="#2e7d32"/>
  <text x="594" y="78" font-family="Arial" font-size="8" font-weight="bold" fill="#fff" text-anchor="middle" dominant-baseline="middle">EP</text>
  <text x="628" y="94" font-family="Arial" font-size="11" font-weight="bold" fill="#e8eaf0" text-anchor="middle">SageMaker</text>
  <text x="628" y="109" font-family="Arial" font-size="9" fill="#9aa5b8" text-anchor="middle">Inference</text>
  <text x="628" y="122" font-family="Arial" font-size="9" fill="#9aa5b8" text-anchor="middle">Endpoint</text>

  <!-- ONLINE LANE -->
  <rect x="20" y="188" width="920" height="155" rx="12" fill="#1a2e24" stroke="#2a5e3a" stroke-width="1.5"/>
  <text x="40" y="214" font-family="Arial" font-size="11" font-weight="bold" fill="#4ecb71">ONLINE PIPELINE — REAL-TIME INFERENCE</text>

  <rect x="48" y="224" width="110" height="80" rx="8" fill="#2c3347" stroke="#5b6a8a" stroke-width="1.5"/>
  <rect x="60" y="232" width="32" height="14" rx="3" fill="#37474f"/>
  <text x="76" y="240" font-family="Arial" font-size="8" font-weight="bold" fill="#fff" text-anchor="middle" dominant-baseline="middle">UBU</text>
  <text x="103" y="258" font-family="Arial" font-size="11" font-weight="bold" fill="#e8eaf0" text-anchor="middle">Ubuntu</text>
  <text x="103" y="273" font-family="Arial" font-size="9" fill="#9aa5b8" text-anchor="middle">stream_transactions</text>
  <text x="103" y="286" font-family="Arial" font-size="9" fill="#9aa5b8" text-anchor="middle">.py</text>

  <line x1="158" y1="264" x2="215" y2="264" stroke="#4ecb71" stroke-width="2" marker-end="url(#ag)"/>
  <text x="186" y="258" font-family="Arial" font-size="9" fill="#8892a4" text-anchor="middle">put_record</text>

  <rect x="218" y="224" width="110" height="80" rx="8" fill="#1a2e3d" stroke="#2196a8" stroke-width="1.5"/>
  <rect x="230" y="232" width="32" height="14" rx="3" fill="#1565c0"/>
  <text x="246" y="240" font-family="Arial" font-size="8" font-weight="bold" fill="#fff" text-anchor="middle" dominant-baseline="middle">KDS</text>
  <text x="273" y="256" font-family="Arial" font-size="11" font-weight="bold" fill="#e8eaf0" text-anchor="middle">Kinesis</text>
  <text x="273" y="271" font-family="Arial" font-size="9" fill="#9aa5b8" text-anchor="middle">Data Streams</text>
  <text x="273" y="284" font-family="Arial" font-size="9" fill="#9aa5b8" text-anchor="middle">fraud-stream</text>

  <line x1="328" y1="264" x2="385" y2="264" stroke="#4ecb71" stroke-width="2" marker-end="url(#ag)"/>
  <text x="356" y="258" font-family="Arial" font-size="9" fill="#8892a4" text-anchor="middle">trigger</text>

  <rect x="388" y="224" width="110" height="80" rx="8" fill="#2d1f10" stroke="#e8862a" stroke-width="1.5"/>
  <rect x="400" y="232" width="28" height="14" rx="3" fill="#e65100"/>
  <text x="414" y="240" font-family="Arial" font-size="9" font-weight="bold" fill="#fff" text-anchor="middle" dominant-baseline="middle">λ</text>
  <text x="443" y="256" font-family="Arial" font-size="11" font-weight="bold" fill="#e8eaf0" text-anchor="middle">AWS Lambda</text>
  <text x="443" y="271" font-family="Arial" font-size="9" fill="#9aa5b8" text-anchor="middle">inference</text>
  <text x="443" y="284" font-family="Arial" font-size="9" fill="#9aa5b8" text-anchor="middle">handler</text>

  <!-- Lambda -> SageMaker EP -->
  <path d="M498 264 L628 264 L628 142" stroke="#4ecb71" stroke-width="2" fill="none" marker-end="url(#ag)"/>
  <text x="578" y="258" font-family="Arial" font-size="9" fill="#8892a4" text-anchor="middle">InvokeEndpoint</text>

  <!-- Lambda -> S3 predictions -->
  <path d="M443 304 L443 375 L555 375" stroke="#4ecb71" stroke-width="2" fill="none" marker-end="url(#ag)"/>
  <text x="464" y="348" font-family="Arial" font-size="9" fill="#8892a4" text-anchor="middle">write result</text>

  <!-- S3 predictions -->
  <rect x="558" y="338" width="115" height="75" rx="8" fill="#2d2710" stroke="#d4a017" stroke-width="1.5"/>
  <rect x="568" y="346" width="24" height="14" rx="3" fill="#f57f17"/>
  <text x="580" y="354" font-family="Arial" font-size="8" font-weight="bold" fill="#fff" text-anchor="middle" dominant-baseline="middle">S3</text>
  <text x="615" y="368" font-family="Arial" font-size="11" font-weight="bold" fill="#e8eaf0" text-anchor="middle">Amazon S3</text>
  <text x="615" y="383" font-family="Arial" font-size="9" fill="#9aa5b8" text-anchor="middle">predictions/</text>
  <text x="615" y="396" font-family="Arial" font-size="9" fill="#9aa5b8" text-anchor="middle">processed/</text>

  <line x1="673" y1="375" x2="730" y2="375" stroke="#4ecb71" stroke-width="2" marker-end="url(#ag)"/>
  <text x="701" y="369" font-family="Arial" font-size="9" fill="#8892a4" text-anchor="middle">query</text>

  <!-- Athena -->
  <rect x="733" y="338" width="110" height="75" rx="8" fill="#101a2d" stroke="#3b6fd4" stroke-width="1.5"/>
  <rect x="743" y="346" width="28" height="14" rx="3" fill="#283593"/>
  <text x="757" y="354" font-family="Arial" font-size="8" font-weight="bold" fill="#fff" text-anchor="middle" dominant-baseline="middle">ATH</text>
  <text x="788" y="366" font-family="Arial" font-size="11" font-weight="bold" fill="#e8eaf0" text-anchor="middle">Athena</text>
  <text x="788" y="381" font-family="Arial" font-size="9" fill="#9aa5b8" text-anchor="middle">SQL Queries</text>
  <text x="788" y="394" font-family="Arial" font-size="9" fill="#9aa5b8" text-anchor="middle">Athena-results/</text>

  <line x1="843" y1="413" x2="843" y2="448" stroke="#4ecb71" stroke-width="2" marker-end="url(#ag)"/>

  <!-- QuickSight -->
  <rect x="783" y="450" width="120" height="75" rx="8" fill="#2a1020" stroke="#e040a0" stroke-width="1.5"/>
  <rect x="793" y="458" width="28" height="14" rx="3" fill="#880e4f"/>
  <text x="807" y="466" font-family="Arial" font-size="8" font-weight="bold" fill="#fff" text-anchor="middle" dominant-baseline="middle">QS</text>
  <text x="843" y="478" font-family="Arial" font-size="11" font-weight="bold" fill="#e8eaf0" text-anchor="middle">QuickSight</text>
  <text x="843" y="493" font-family="Arial" font-size="9" fill="#9aa5b8" text-anchor="middle">Fraud Analytics</text>
  <text x="843" y="506" font-family="Arial" font-size="9" fill="#9aa5b8" text-anchor="middle">Dashboard</text>

  <!-- MONITORING LANE -->
  <rect x="20" y="458" width="700" height="162" rx="12" fill="#2d1e2e" stroke="#5e2a6a" stroke-width="1.5"/>
  <text x="40" y="482" font-family="Arial" font-size="11" font-weight="bold" fill="#c97de8">MONITORING — CLOUDWATCH + SNS ALERTS</text>

  <!-- CloudWatch -->
  <rect x="48" y="494" width="130" height="90" rx="8" fill="#2a1a2d" stroke="#ab47bc" stroke-width="1.5"/>
  <rect x="60" y="502" width="28" height="14" rx="3" fill="#6a1b9a"/>
  <text x="74" y="510" font-family="Arial" font-size="8" font-weight="bold" fill="#fff" text-anchor="middle" dominant-baseline="middle">CW</text>
  <text x="113" y="524" font-family="Arial" font-size="11" font-weight="bold" fill="#e8eaf0" text-anchor="middle">CloudWatch</text>
  <text x="113" y="539" font-family="Arial" font-size="9" fill="#9aa5b8" text-anchor="middle">Logs · Metrics</text>
  <text x="113" y="552" font-family="Arial" font-size="9" fill="#9aa5b8" text-anchor="middle">Alarms</text>
  <text x="113" y="565" font-family="Arial" font-size="9" fill="#9aa5b8" text-anchor="middle">Dashboards</text>

  <!-- CW -> Kinesis (dashed) -->
  <path d="M108 494 L108 330 L273 330 L273 304" stroke="#ab47bc" stroke-width="1.5" fill="none" stroke-dasharray="5,3" marker-end="url(#ap)"/>
  <!-- CW -> Lambda (dashed) -->
  <path d="M125 494 L125 315 L443 315 L443 304" stroke="#ab47bc" stroke-width="1.5" fill="none" stroke-dasharray="5,3" marker-end="url(#ap)"/>
  <!-- CW -> SageMaker EP (dashed) -->
  <path d="M150 494 L150 48 L628 48 L628 62" stroke="#ab47bc" stroke-width="1.5" fill="none" stroke-dasharray="5,3" marker-end="url(#ap)"/>

  <line x1="178" y1="539" x2="255" y2="539" stroke="#e53935" stroke-width="1.5" marker-end="url(#ar)"/>
  <text x="216" y="533" font-family="Arial" font-size="9" fill="#8892a4" text-anchor="middle">alarm trigger</text>

  <!-- SNS -->
  <rect x="258" y="494" width="120" height="90" rx="8" fill="#2d1010" stroke="#e53935" stroke-width="1.5"/>
  <rect x="268" y="502" width="28" height="14" rx="3" fill="#b71c1c"/>
  <text x="282" y="510" font-family="Arial" font-size="8" font-weight="bold" fill="#fff" text-anchor="middle" dominant-baseline="middle">SNS</text>
  <text x="318" y="524" font-family="Arial" font-size="11" font-weight="bold" fill="#e8eaf0" text-anchor="middle">Amazon SNS</text>
  <text x="318" y="539" font-family="Arial" font-size="9" fill="#9aa5b8" text-anchor="middle">Fraud Rate Alert</text>
  <text x="318" y="552" font-family="Arial" font-size="9" fill="#9aa5b8" text-anchor="middle">Email / SMS</text>
  <text x="318" y="565" font-family="Arial" font-size="9" fill="#9aa5b8" text-anchor="middle">Notification</text>

  <!-- LEGEND -->
  <rect x="20" y="626" width="920" height="10" rx="3" fill="#1e2030"/>
  <rect x="30" y="628" width="8" height="8" rx="1" fill="#5ba3d9"/>
  <text x="44" y="635" font-family="Arial" font-size="9" fill="#9aa5b8">Offline</text>
  <rect x="100" y="628" width="8" height="8" rx="1" fill="#4ecb71"/>
  <text x="114" y="635" font-family="Arial" font-size="9" fill="#9aa5b8">Online</text>
  <rect x="170" y="628" width="8" height="8" rx="1" fill="#ab47bc"/>
  <text x="184" y="635" font-family="Arial" font-size="9" fill="#9aa5b8">Monitoring</text>
  <rect x="260" y="628" width="8" height="8" rx="1" fill="#e53935"/>
  <text x="274" y="635" font-family="Arial" font-size="9" fill="#9aa5b8">Alert</text>
  <rect x="316" y="628" width="8" height="8" rx="1" fill="#d4a017"/>
  <text x="330" y="635" font-family="Arial" font-size="9" fill="#9aa5b8">S3 Storage</text>
</svg>